<mxfile host="app.diagrams.net" modified="2023-03-08T09:10:28.196Z" agent="5.0 (Windows NT 10.0; Win64; x64) AppleWebKit/537.36 (KHTML, like Gecko) Chrome/110.0.0.0 Safari/537.36" etag="TK5BWUX244SuOxFMfwyH" version="21.0.2" type="github">
  <diagram name="페이지-1" id="AGQtK88p8ZgHVh_D8q78">
    <mxGraphModel dx="2376" dy="1156" grid="1" gridSize="10" guides="1" tooltips="1" connect="1" arrows="1" fold="1" page="1" pageScale="1" pageWidth="827" pageHeight="1169" math="0" shadow="0">
      <root>
        <mxCell id="0" />
        <mxCell id="1" parent="0" />
        <mxCell id="TzcRcbj7E2KVNYpa8TYO-34" value="" style="rounded=1;whiteSpace=wrap;html=1;strokeColor=#CC6600;" parent="1" vertex="1">
          <mxGeometry x="800" y="140" width="270" height="364" as="geometry" />
        </mxCell>
        <mxCell id="TzcRcbj7E2KVNYpa8TYO-2" value="" style="shape=image;verticalLabelPosition=bottom;labelBackgroundColor=default;verticalAlign=top;aspect=fixed;imageAspect=0;image=https://www.rogerperkin.co.uk/wp-content/uploads/2014/01/cisco-layer-3-switch-visio-stencil.jpg;imageBorder=none;" parent="1" vertex="1">
          <mxGeometry x="352.18" y="299" width="62.58" height="68" as="geometry" />
        </mxCell>
        <mxCell id="TzcRcbj7E2KVNYpa8TYO-3" value="" style="shape=image;verticalLabelPosition=bottom;labelBackgroundColor=default;verticalAlign=top;aspect=fixed;imageAspect=0;image=https://www.rogerperkin.co.uk/wp-content/uploads/2014/01/cisco-layer-3-switch-visio-stencil.jpg;" parent="1" vertex="1">
          <mxGeometry x="480" y="299" width="62.58" height="68" as="geometry" />
        </mxCell>
        <mxCell id="TzcRcbj7E2KVNYpa8TYO-5" value="" style="shape=image;verticalLabelPosition=bottom;labelBackgroundColor=default;verticalAlign=top;aspect=fixed;imageAspect=0;image=https://www.freeiconspng.com/thumbs/switches-icons/switches-icon-7.jpg;" parent="1" vertex="1">
          <mxGeometry x="414.76" y="209" width="72.18" height="60" as="geometry" />
        </mxCell>
        <mxCell id="TzcRcbj7E2KVNYpa8TYO-6" value="" style="rounded=1;whiteSpace=wrap;html=1;fillColor=#D4E1F5;strokeColor=#FFFFFF;" parent="1" vertex="1">
          <mxGeometry x="-130.07999999999998" y="248" width="260" height="100" as="geometry" />
        </mxCell>
        <mxCell id="TzcRcbj7E2KVNYpa8TYO-7" value="" style="rounded=1;whiteSpace=wrap;html=1;fillColor=#FFF2B0;strokeColor=#FFFFFF;" parent="1" vertex="1">
          <mxGeometry x="820" y="375" width="230" height="110" as="geometry" />
        </mxCell>
        <mxCell id="TzcRcbj7E2KVNYpa8TYO-14" value="" style="sketch=0;points=[[0.015,0.015,0],[0.985,0.015,0],[0.985,0.985,0],[0.015,0.985,0],[0.25,0,0],[0.5,0,0],[0.75,0,0],[1,0.25,0],[1,0.5,0],[1,0.75,0],[0.75,1,0],[0.5,1,0],[0.25,1,0],[0,0.75,0],[0,0.5,0],[0,0.25,0]];verticalLabelPosition=bottom;html=1;verticalAlign=top;aspect=fixed;align=center;pointerEvents=1;shape=mxgraph.cisco19.server;fillColor=#004C99;strokeColor=#FF7E33;" parent="1" vertex="1">
          <mxGeometry x="64.84000000000002" y="259" width="42.9" height="78" as="geometry" />
        </mxCell>
        <mxCell id="TzcRcbj7E2KVNYpa8TYO-20" value="" style="group" parent="1" vertex="1" connectable="0">
          <mxGeometry x="280" y="534" width="155.24" height="102" as="geometry" />
        </mxCell>
        <mxCell id="TzcRcbj7E2KVNYpa8TYO-8" value="" style="rounded=1;whiteSpace=wrap;html=1;fillColor=#E3E3E3;strokeColor=#FFFFFF;" parent="TzcRcbj7E2KVNYpa8TYO-20" vertex="1">
          <mxGeometry x="-40" width="155.24" height="102" as="geometry" />
        </mxCell>
        <mxCell id="TzcRcbj7E2KVNYpa8TYO-18" value="" style="points=[[0.03,0.03,0],[0.5,0,0],[0.97,0.03,0],[1,0.4,0],[0.97,0.745,0],[0.5,1,0],[0.03,0.745,0],[0,0.4,0]];verticalLabelPosition=bottom;sketch=0;html=1;verticalAlign=top;aspect=fixed;align=center;pointerEvents=1;shape=mxgraph.cisco19.workstation;fillColor=#595959;strokeColor=none;" parent="TzcRcbj7E2KVNYpa8TYO-20" vertex="1">
          <mxGeometry x="-20.560000000000002" y="21.674999999999997" width="50" height="40" as="geometry" />
        </mxCell>
        <mxCell id="TzcRcbj7E2KVNYpa8TYO-19" value="" style="points=[[0.03,0.03,0],[0.5,0,0],[0.97,0.03,0],[1,0.4,0],[0.97,0.745,0],[0.5,1,0],[0.03,0.745,0],[0,0.4,0]];verticalLabelPosition=bottom;sketch=0;html=1;verticalAlign=top;aspect=fixed;align=center;pointerEvents=1;shape=mxgraph.cisco19.workstation;fillColor=#595959;strokeColor=none;" parent="TzcRcbj7E2KVNYpa8TYO-20" vertex="1">
          <mxGeometry x="54.519999999999996" y="21.674999999999997" width="50" height="40" as="geometry" />
        </mxCell>
        <mxCell id="TzcRcbj7E2KVNYpa8TYO-21" value="" style="group" parent="1" vertex="1" connectable="0">
          <mxGeometry x="454.52" y="536" width="155.24" height="100" as="geometry" />
        </mxCell>
        <mxCell id="TzcRcbj7E2KVNYpa8TYO-22" value="" style="rounded=1;whiteSpace=wrap;html=1;fillColor=#E3E3E3;strokeColor=#FFFFFF;" parent="TzcRcbj7E2KVNYpa8TYO-21" vertex="1">
          <mxGeometry width="155.24" height="100" as="geometry" />
        </mxCell>
        <mxCell id="TzcRcbj7E2KVNYpa8TYO-23" value="" style="points=[[0.03,0.03,0],[0.5,0,0],[0.97,0.03,0],[1,0.4,0],[0.97,0.745,0],[0.5,1,0],[0.03,0.745,0],[0,0.4,0]];verticalLabelPosition=bottom;sketch=0;html=1;verticalAlign=top;aspect=fixed;align=center;pointerEvents=1;shape=mxgraph.cisco19.workstation;fillColor=#595959;strokeColor=none;" parent="TzcRcbj7E2KVNYpa8TYO-21" vertex="1">
          <mxGeometry x="19.439999999999998" y="21.25" width="50" height="40" as="geometry" />
        </mxCell>
        <mxCell id="TzcRcbj7E2KVNYpa8TYO-24" value="" style="points=[[0.03,0.03,0],[0.5,0,0],[0.97,0.03,0],[1,0.4,0],[0.97,0.745,0],[0.5,1,0],[0.03,0.745,0],[0,0.4,0]];verticalLabelPosition=bottom;sketch=0;html=1;verticalAlign=top;aspect=fixed;align=center;pointerEvents=1;shape=mxgraph.cisco19.workstation;fillColor=#595959;strokeColor=none;" parent="TzcRcbj7E2KVNYpa8TYO-21" vertex="1">
          <mxGeometry x="94.52" y="21.25" width="50" height="40" as="geometry" />
        </mxCell>
        <mxCell id="TzcRcbj7E2KVNYpa8TYO-25" value="" style="group" parent="1" vertex="1" connectable="0">
          <mxGeometry x="624.52" y="534" width="155.24" height="102" as="geometry" />
        </mxCell>
        <mxCell id="TzcRcbj7E2KVNYpa8TYO-26" value="" style="rounded=1;whiteSpace=wrap;html=1;fillColor=#E3E3E3;strokeColor=#FFFFFF;" parent="TzcRcbj7E2KVNYpa8TYO-25" vertex="1">
          <mxGeometry width="155.24" height="102" as="geometry" />
        </mxCell>
        <mxCell id="TzcRcbj7E2KVNYpa8TYO-27" value="" style="points=[[0.03,0.03,0],[0.5,0,0],[0.97,0.03,0],[1,0.4,0],[0.97,0.745,0],[0.5,1,0],[0.03,0.745,0],[0,0.4,0]];verticalLabelPosition=bottom;sketch=0;html=1;verticalAlign=top;aspect=fixed;align=center;pointerEvents=1;shape=mxgraph.cisco19.workstation;fillColor=#595959;strokeColor=none;" parent="TzcRcbj7E2KVNYpa8TYO-25" vertex="1">
          <mxGeometry x="19.439999999999998" y="21.674999999999997" width="50" height="40" as="geometry" />
        </mxCell>
        <mxCell id="TzcRcbj7E2KVNYpa8TYO-28" value="" style="points=[[0.03,0.03,0],[0.5,0,0],[0.97,0.03,0],[1,0.4,0],[0.97,0.745,0],[0.5,1,0],[0.03,0.745,0],[0,0.4,0]];verticalLabelPosition=bottom;sketch=0;html=1;verticalAlign=top;aspect=fixed;align=center;pointerEvents=1;shape=mxgraph.cisco19.workstation;fillColor=#595959;strokeColor=none;" parent="TzcRcbj7E2KVNYpa8TYO-25" vertex="1">
          <mxGeometry x="94.52" y="21.674999999999997" width="50" height="40" as="geometry" />
        </mxCell>
        <mxCell id="TzcRcbj7E2KVNYpa8TYO-13" value="" style="sketch=0;points=[[0.015,0.015,0],[0.985,0.015,0],[0.985,0.985,0],[0.015,0.985,0],[0.25,0,0],[0.5,0,0],[0.75,0,0],[1,0.25,0],[1,0.5,0],[1,0.75,0],[0.75,1,0],[0.5,1,0],[0.25,1,0],[0,0.75,0],[0,0.5,0],[0,0.25,0]];verticalLabelPosition=bottom;html=1;verticalAlign=top;aspect=fixed;align=center;pointerEvents=1;shape=mxgraph.cisco19.server;fillColor=#FF8000;strokeColor=#FF7E33;" parent="1" vertex="1">
          <mxGeometry x="913.55" y="391" width="42.9" height="78" as="geometry" />
        </mxCell>
        <mxCell id="TzcRcbj7E2KVNYpa8TYO-30" value="" style="sketch=0;points=[[0.015,0.015,0],[0.985,0.015,0],[0.985,0.985,0],[0.015,0.985,0],[0.25,0,0],[0.5,0,0],[0.75,0,0],[1,0.25,0],[1,0.5,0],[1,0.75,0],[0.75,1,0],[0.5,1,0],[0.25,1,0],[0,0.75,0],[0,0.5,0],[0,0.25,0]];verticalLabelPosition=bottom;html=1;verticalAlign=top;aspect=fixed;align=center;pointerEvents=1;shape=mxgraph.cisco19.server;fillColor=#FF8000;strokeColor=#FF7E33;" parent="1" vertex="1">
          <mxGeometry x="970" y="391" width="42.9" height="78" as="geometry" />
        </mxCell>
        <mxCell id="TzcRcbj7E2KVNYpa8TYO-31" value="" style="rounded=1;whiteSpace=wrap;html=1;fillColor=#FFF2B0;strokeColor=#FFFFFF;" parent="1" vertex="1">
          <mxGeometry x="813" y="150" width="230" height="215" as="geometry" />
        </mxCell>
        <mxCell id="TzcRcbj7E2KVNYpa8TYO-32" value="" style="sketch=0;points=[[0.015,0.015,0],[0.985,0.015,0],[0.985,0.985,0],[0.015,0.985,0],[0.25,0,0],[0.5,0,0],[0.75,0,0],[1,0.25,0],[1,0.5,0],[1,0.75,0],[0.75,1,0],[0.5,1,0],[0.25,1,0],[0,0.75,0],[0,0.5,0],[0,0.25,0]];verticalLabelPosition=bottom;html=1;verticalAlign=top;aspect=fixed;align=center;pointerEvents=1;shape=mxgraph.cisco19.server;fillColor=#FF8000;strokeColor=#FF7E33;" parent="1" vertex="1">
          <mxGeometry x="906.55" y="261" width="42.9" height="78" as="geometry" />
        </mxCell>
        <mxCell id="TzcRcbj7E2KVNYpa8TYO-33" value="" style="sketch=0;points=[[0.015,0.015,0],[0.985,0.015,0],[0.985,0.985,0],[0.015,0.985,0],[0.25,0,0],[0.5,0,0],[0.75,0,0],[1,0.25,0],[1,0.5,0],[1,0.75,0],[0.75,1,0],[0.5,1,0],[0.25,1,0],[0,0.75,0],[0,0.5,0],[0,0.25,0]];verticalLabelPosition=bottom;html=1;verticalAlign=top;aspect=fixed;align=center;pointerEvents=1;shape=mxgraph.cisco19.server;fillColor=#FF8000;strokeColor=#FF7E33;" parent="1" vertex="1">
          <mxGeometry x="963" y="261" width="42.9" height="78" as="geometry" />
        </mxCell>
        <mxCell id="TzcRcbj7E2KVNYpa8TYO-36" value="" style="shape=mxgraph.cisco.switches.workgroup_switch;sketch=0;html=1;pointerEvents=1;dashed=0;fillColor=#4D4D4D;strokeColor=#ffffff;strokeWidth=2;verticalLabelPosition=bottom;verticalAlign=top;align=center;outlineConnect=0;" parent="1" vertex="1">
          <mxGeometry x="220" y="440" width="80" height="20" as="geometry" />
        </mxCell>
        <mxCell id="TzcRcbj7E2KVNYpa8TYO-39" value="" style="shape=mxgraph.cisco.switches.workgroup_switch;sketch=0;html=1;pointerEvents=1;dashed=0;fillColor=#4D4D4D;strokeColor=#ffffff;strokeWidth=2;verticalLabelPosition=bottom;verticalAlign=top;align=center;outlineConnect=0;" parent="1" vertex="1">
          <mxGeometry x="403.47" y="440" width="80" height="20" as="geometry" />
        </mxCell>
        <mxCell id="TzcRcbj7E2KVNYpa8TYO-40" value="" style="shape=mxgraph.cisco.switches.workgroup_switch;sketch=0;html=1;pointerEvents=1;dashed=0;fillColor=#4D4D4D;strokeColor=#ffffff;strokeWidth=2;verticalLabelPosition=bottom;verticalAlign=top;align=center;outlineConnect=0;" parent="1" vertex="1">
          <mxGeometry x="650" y="269" width="80" height="20" as="geometry" />
        </mxCell>
        <mxCell id="TzcRcbj7E2KVNYpa8TYO-41" value="" style="shape=mxgraph.cisco.switches.workgroup_switch;sketch=0;html=1;pointerEvents=1;dashed=0;fillColor=#4D4D4D;strokeColor=#ffffff;strokeWidth=2;verticalLabelPosition=bottom;verticalAlign=top;align=center;outlineConnect=0;" parent="1" vertex="1">
          <mxGeometry x="580" y="434" width="80" height="20" as="geometry" />
        </mxCell>
        <mxCell id="TzcRcbj7E2KVNYpa8TYO-42" value="" style="shape=mxgraph.cisco.switches.workgroup_switch;sketch=0;html=1;pointerEvents=1;dashed=0;fillColor=#4D4D4D;strokeColor=#ffffff;strokeWidth=2;verticalLabelPosition=bottom;verticalAlign=top;align=center;outlineConnect=0;" parent="1" vertex="1">
          <mxGeometry x="180" y="279" width="80" height="20" as="geometry" />
        </mxCell>
        <mxCell id="TzcRcbj7E2KVNYpa8TYO-54" value="" style="sketch=0;points=[[0.015,0.015,0],[0.985,0.015,0],[0.985,0.985,0],[0.015,0.985,0],[0.25,0,0],[0.5,0,0],[0.75,0,0],[1,0.25,0],[1,0.5,0],[1,0.75,0],[0.75,1,0],[0.5,1,0],[0.25,1,0],[0,0.75,0],[0,0.5,0],[0,0.25,0]];verticalLabelPosition=bottom;html=1;verticalAlign=top;aspect=fixed;align=center;pointerEvents=1;shape=mxgraph.cisco19.server;fillColor=#004C99;strokeColor=#FF7E33;" parent="1" vertex="1">
          <mxGeometry x="9.920000000000014" y="259" width="42.9" height="78" as="geometry" />
        </mxCell>
        <mxCell id="TzcRcbj7E2KVNYpa8TYO-55" value="" style="sketch=0;points=[[0.015,0.015,0],[0.985,0.015,0],[0.985,0.985,0],[0.015,0.985,0],[0.25,0,0],[0.5,0,0],[0.75,0,0],[1,0.25,0],[1,0.5,0],[1,0.75,0],[0.75,1,0],[0.5,1,0],[0.25,1,0],[0,0.75,0],[0,0.5,0],[0,0.25,0]];verticalLabelPosition=bottom;html=1;verticalAlign=top;aspect=fixed;align=center;pointerEvents=1;shape=mxgraph.cisco19.server;fillColor=#004C99;strokeColor=#FF7E33;" parent="1" vertex="1">
          <mxGeometry x="-50.079999999999984" y="259" width="42.9" height="78" as="geometry" />
        </mxCell>
        <mxCell id="TzcRcbj7E2KVNYpa8TYO-56" value="" style="sketch=0;points=[[0.015,0.015,0],[0.985,0.015,0],[0.985,0.985,0],[0.015,0.985,0],[0.25,0,0],[0.5,0,0],[0.75,0,0],[1,0.25,0],[1,0.5,0],[1,0.75,0],[0.75,1,0],[0.5,1,0],[0.25,1,0],[0,0.75,0],[0,0.5,0],[0,0.25,0]];verticalLabelPosition=bottom;html=1;verticalAlign=top;aspect=fixed;align=center;pointerEvents=1;shape=mxgraph.cisco19.server;fillColor=#004C99;strokeColor=#FF7E33;" parent="1" vertex="1">
          <mxGeometry x="-110.07999999999998" y="259" width="42.9" height="78" as="geometry" />
        </mxCell>
        <mxCell id="TzcRcbj7E2KVNYpa8TYO-50" value="" style="rounded=1;whiteSpace=wrap;html=1;fillColor=#E3E3E3;strokeColor=#FFFFFF;" parent="1" vertex="1">
          <mxGeometry x="98.75" y="534" width="115.24" height="102" as="geometry" />
        </mxCell>
        <mxCell id="TzcRcbj7E2KVNYpa8TYO-53" value="" style="sketch=0;points=[[0.015,0.015,0],[0.985,0.015,0],[0.985,0.985,0],[0.015,0.985,0],[0.25,0,0],[0.5,0,0],[0.75,0,0],[1,0.25,0],[1,0.5,0],[1,0.75,0],[0.75,1,0],[0.5,1,0],[0.25,1,0],[0,0.75,0],[0,0.5,0],[0,0.25,0]];verticalLabelPosition=bottom;html=1;verticalAlign=top;aspect=fixed;align=center;pointerEvents=1;shape=mxgraph.cisco19.server;fillColor=#4D4D4D;strokeColor=#FF7E33;" parent="1" vertex="1">
          <mxGeometry x="134.92000000000002" y="546" width="42.9" height="78" as="geometry" />
        </mxCell>
        <mxCell id="TzcRcbj7E2KVNYpa8TYO-60" value="" style="sketch=0;points=[[0.015,0.015,0],[0.985,0.015,0],[0.985,0.985,0],[0.015,0.985,0],[0.25,0,0],[0.5,0,0],[0.75,0,0],[1,0.25,0],[1,0.5,0],[1,0.75,0],[0.75,1,0],[0.5,1,0],[0.25,1,0],[0,0.75,0],[0,0.5,0],[0,0.25,0]];verticalLabelPosition=bottom;html=1;verticalAlign=top;aspect=fixed;align=center;pointerEvents=1;shape=mxgraph.cisco19.server;fillColor=#FF8000;strokeColor=#FF7E33;" parent="1" vertex="1">
          <mxGeometry x="850" y="391" width="42.9" height="78" as="geometry" />
        </mxCell>
        <mxCell id="TzcRcbj7E2KVNYpa8TYO-61" value="" style="sketch=0;points=[[0.015,0.015,0],[0.985,0.015,0],[0.985,0.985,0],[0.015,0.985,0],[0.25,0,0],[0.5,0,0],[0.75,0,0],[1,0.25,0],[1,0.5,0],[1,0.75,0],[0.75,1,0],[0.5,1,0],[0.25,1,0],[0,0.75,0],[0,0.5,0],[0,0.25,0]];verticalLabelPosition=bottom;html=1;verticalAlign=top;aspect=fixed;align=center;pointerEvents=1;shape=mxgraph.cisco19.server;fillColor=#FF8000;strokeColor=#FF7E33;" parent="1" vertex="1">
          <mxGeometry x="850" y="261" width="42.9" height="78" as="geometry" />
        </mxCell>
        <mxCell id="TzcRcbj7E2KVNYpa8TYO-62" value="" style="sketch=0;points=[[0.015,0.015,0],[0.985,0.015,0],[0.985,0.985,0],[0.015,0.985,0],[0.25,0,0],[0.5,0,0],[0.75,0,0],[1,0.25,0],[1,0.5,0],[1,0.75,0],[0.75,1,0],[0.5,1,0],[0.25,1,0],[0,0.75,0],[0,0.5,0],[0,0.25,0]];verticalLabelPosition=bottom;html=1;verticalAlign=top;aspect=fixed;align=center;pointerEvents=1;shape=mxgraph.cisco19.server;fillColor=#FF8000;strokeColor=#FF7E33;" parent="1" vertex="1">
          <mxGeometry x="934.8299999999999" y="170" width="42.9" height="78" as="geometry" />
        </mxCell>
        <mxCell id="TzcRcbj7E2KVNYpa8TYO-63" value="" style="sketch=0;points=[[0.015,0.015,0],[0.985,0.015,0],[0.985,0.985,0],[0.015,0.985,0],[0.25,0,0],[0.5,0,0],[0.75,0,0],[1,0.25,0],[1,0.5,0],[1,0.75,0],[0.75,1,0],[0.5,1,0],[0.25,1,0],[0,0.75,0],[0,0.5,0],[0,0.25,0]];verticalLabelPosition=bottom;html=1;verticalAlign=top;aspect=fixed;align=center;pointerEvents=1;shape=mxgraph.cisco19.server;fillColor=#FF8000;strokeColor=#FF7E33;" parent="1" vertex="1">
          <mxGeometry x="878.28" y="170" width="42.9" height="78" as="geometry" />
        </mxCell>
        <mxCell id="F6gRw0wG-0sJVJv1_u1h-2" value="" style="ellipse;shape=cloud;whiteSpace=wrap;html=1;strokeColor=#D4E1F5;fillColor=#D4E1F5;" vertex="1" parent="1">
          <mxGeometry x="246.94" y="70" width="167.82" height="100" as="geometry" />
        </mxCell>
      </root>
    </mxGraphModel>
  </diagram>
</mxfile>
